<svg width="1440" height="1024" viewBox="0 0 1440 1024" fill="none" xmlns="http://www.w3.org/2000/svg">
<path d="M0 0H1440V1024H0V0Z" fill="url(#paint0_linear_1029_622)"/>
<path d="M487.064 956.651C487.064 1097.36 363.894 1211.5 211.874 1211.5C59.8532 1211.5 -63.3171 1097.36 -63.3171 956.651C-63.3171 815.936 59.8532 701.801 211.874 701.801C363.894 701.801 487.064 815.936 487.064 956.651Z" stroke="#0575E6"/>
<path d="M406.881 932.812C406.881 1073.53 283.711 1187.66 131.691 1187.66C-20.3297 1187.66 -143.5 1073.53 -143.5 932.812C-143.5 792.098 -20.3297 677.962 131.691 677.962C283.711 677.962 406.881 792.098 406.881 932.812Z" stroke="#0575E6"/>
<defs>
<linearGradient id="paint0_linear_1029_622" x1="720" y1="0" x2="720" y2="1024" gradientUnits="userSpaceOnUse">
<stop stop-color="#0575E6"/>
<stop offset="0.847875" stop-color="#02298A"/>
<stop offset="1" stop-color="#021B79"/>
</linearGradient>
</defs>
</svg>
