<svg width="21" height="18" viewBox="0 0 21 18" fill="none" xmlns="http://www.w3.org/2000/svg">
<path d="M17 2C14.7943 2 13 3.79431 13 6C13 8.20569 14.7943 10 17 10C19.2057 10 21 8.20569 21 6C21 3.79431 19.2057 2 17 2ZM18.75 6.33332H17.3333V7.75C17.3333 7.93403 17.184 8.08332 17 8.08332C16.816 8.08332 16.6667 7.93403 16.6667 7.75V6.33332H15.25C15.066 6.33332 14.9167 6.18403 14.9167 6C14.9167 5.81597 15.066 5.66668 15.25 5.66668H16.6667V4.25C16.6667 4.06598 16.816 3.91669 17 3.91669C17.184 3.91669 17.3333 4.06598 17.3333 4.25V5.66668H18.75C18.934 5.66668 19.0833 5.81597 19.0833 6C19.0833 6.18403 18.934 6.33332 18.75 6.33332Z" fill="#6E7191"/>
<path d="M11.6667 4.16672C11.6667 6.4679 9.80115 8.33328 7.49997 8.33328C5.19879 8.33328 3.33325 6.4679 3.33325 4.16672C3.33325 1.86554 5.19879 0 7.49997 0C9.80115 0 11.6667 1.86554 11.6667 4.16672Z" fill="#6E7191"/>
<path d="M11.0417 10H3.95828C1.77582 10 0 11.7758 0 13.9583V16.875C0 17.22 0.279999 17.5 0.625 17.5H14.375C14.72 17.5 15 17.22 15 16.875V13.9583C15 11.7758 13.2242 10 11.0417 10V10Z" fill="#6E7191"/>
</svg>
