<svg width="40" height="40" viewBox="0 0 40 40" fill="none" xmlns="http://www.w3.org/2000/svg">
<path d="M10.5 32H13.5V27.5H18V24.5H13.5V20H10.5V24.5H6V27.5H10.5V32ZM22 24.5H34V22.5H22V24.5ZM22 30.5H30V28.5H22V30.5ZM3 40C2.2 40 1.5 39.7 0.9 39.1C0.3 38.5 0 37.8 0 37V13C0 12.2 0.3 11.5 0.9 10.9C1.5 10.3 2.2 10 3 10H15.5V3C15.5 2.2 15.8 1.5 16.4 0.9C17 0.3 17.7069 0 18.5206 0H21.4794C22.2931 0 23 0.3 23.6 0.9C24.2 1.5 24.5 2.2 24.5 3V10H37C37.8 10 38.5 10.3 39.1 10.9C39.7 11.5 40 12.2 40 13V37C40 37.8 39.7 38.5 39.1 39.1C38.5 39.7 37.8 40 37 40H3ZM3 37H37V13H24.5V14.5C24.5 15.4333 24.2 16.1667 23.6 16.7C23 17.2333 22.2931 17.5 21.4794 17.5H18.5206C17.7069 17.5 17 17.2333 16.4 16.7C15.8 16.1667 15.5 15.4333 15.5 14.5V13H3V37ZM18.5 14.5H21.5V3H18.5V14.5Z" fill="white"/>
</svg>
