<svg width="48" height="48" viewBox="0 0 48 48" fill="none" xmlns="http://www.w3.org/2000/svg">
<path d="M34 31.5C32.3333 31.5 30.9167 30.9167 29.75 29.75C28.5833 28.5833 28 27.1667 28 25.5C28 23.8333 28.5833 22.4167 29.75 21.25C30.9167 20.0833 32.3333 19.5 34 19.5C35.6667 19.5 37.0833 20.0833 38.25 21.25C39.4167 22.4167 40 23.8333 40 25.5C40 27.1667 39.4167 28.5833 38.25 29.75C37.0833 30.9167 35.6667 31.5 34 31.5ZM34 28.5C34.85 28.5 35.5625 28.2125 36.1375 27.6375C36.7125 27.0625 37 26.35 37 25.5C37 24.65 36.7125 23.9375 36.1375 23.3625C35.5625 22.7875 34.85 22.5 34 22.5C33.15 22.5 32.4375 22.7875 31.8625 23.3625C31.2875 23.9375 31 24.65 31 25.5C31 26.35 31.2875 27.0625 31.8625 27.6375C32.4375 28.2125 33.15 28.5 34 28.5ZM22 45.5V39.7C22 39 22.1667 38.3417 22.5 37.725C22.8333 37.1083 23.3 36.6167 23.9 36.25C24.8333 35.6833 25.8 35.1917 26.8 34.775C27.8 34.3583 28.8333 34.0167 29.9 33.75L34 39.05L38.1 33.75C39.1667 34.0167 40.1917 34.3583 41.175 34.775C42.1583 35.1917 43.1167 35.6833 44.05 36.25C44.65 36.6167 45.125 37.1083 45.475 37.725C45.825 38.3417 46 39 46 39.7V45.5H22ZM25 42.5H32.85L28.75 37.2C28.0833 37.4667 27.4333 37.7583 26.8 38.075C26.1667 38.3917 25.5667 38.7333 25 39.1V42.5ZM35.15 42.5H43V39.1C42.4333 38.7333 41.8417 38.3917 41.225 38.075C40.6083 37.7583 39.9667 37.4667 39.3 37.2L35.15 42.5ZM9 42C8.175 42 7.46875 41.7063 6.88125 41.1188C6.29375 40.5313 6 39.825 6 39V9C6 8.175 6.29375 7.46875 6.88125 6.88125C7.46875 6.29375 8.175 6 9 6H39C39.825 6 40.5313 6.29375 41.1188 6.88125C41.7063 7.46875 42 8.175 42 9V21.35C41.6333 20.6833 41.2 20.0667 40.7 19.5C40.2 18.9333 39.6333 18.4333 39 18V9H9V39H19V42H9ZM14 17H31.05C31.5167 16.8333 31.9973 16.7083 32.492 16.625C32.9867 16.5417 33.4894 16.5 34 16.5V14H14V17ZM14 25.5H25C25 25 25.0417 24.4917 25.125 23.975C25.2083 23.4583 25.3333 22.9667 25.5 22.5H14V25.5ZM14 34H21.9C22.4667 33.5667 23.0667 33.2083 23.7 32.925C24.3333 32.6417 24.9833 32.3667 25.65 32.1V31H14V34ZM9 39V9V18V16.5V39Z" fill="white"/>
</svg>
